<?xml version="1.0" standalone="no"?>
<!DOCTYPE svg PUBLIC "-//W3C//DTD SVG 20010904//EN"
 "http://www.w3.org/TR/2001/REC-SVG-20010904/DTD/svg10.dtd">
<svg version="1.0" xmlns="http://www.w3.org/2000/svg"
 width="1242.000000pt" height="1223.000000pt" viewBox="0 0 1242.000000 1223.000000"
 preserveAspectRatio="xMidYMid meet">

<g transform="translate(0.000000,1223.000000) scale(0.100000,-0.100000)"
fill="#000000" stroke="none">
<path d="M5830 11824 c-207 -40 -408 -142 -695 -352 -78 -57 -106 -72 -125
-69 -28 6 -116 37 -275 97 -154 58 -271 89 -335 90 -126 0 -270 -68 -372 -178
-137 -146 -324 -500 -570 -1077 -67 -158 -183 -492 -233 -675 -85 -306 -98
-467 -52 -645 15 -56 33 -117 42 -138 22 -54 19 -92 -25 -302 -70 -329 -87
-540 -55 -688 35 -165 245 -502 514 -827 53 -63 126 -153 164 -200 l69 -85
-88 -42 c-49 -23 -151 -65 -226 -94 -81 -30 -167 -71 -208 -98 -72 -47 -296
-262 -403 -386 -34 -38 -77 -82 -97 -96 -20 -15 -43 -42 -50 -60 -8 -19 -36
-74 -63 -124 -145 -268 -319 -706 -479 -1205 -87 -272 -97 -324 -138 -660 -9
-70 -12 -78 -48 -110 -128 -115 -222 -286 -222 -403 0 -21 11 -72 25 -113 30
-90 30 -96 4 -170 -25 -70 -30 -214 -9 -309 9 -44 11 -108 6 -235 -4 -100 -2
-200 3 -232 20 -115 92 -253 222 -426 81 -109 94 -133 103 -194 5 -33 20 -65
50 -105 150 -203 611 -529 873 -618 l67 -22 1 -89 c1 -75 6 -103 34 -176 18
-47 56 -127 86 -177 l54 -91 -6 -85 c-6 -82 -5 -87 28 -152 24 -47 64 -99 132
-169 53 -56 97 -109 97 -118 0 -15 74 -16 894 -16 l894 0 16 47 c72 226 147
599 201 1002 14 101 29 211 35 245 6 34 19 147 30 253 19 182 19 205 5 445
-18 330 -33 658 -45 1053 -19 579 -40 1098 -50 1224 -5 69 -5 131 -1 139 5 10
10 -1 13 -30 7 -60 56 -168 67 -149 11 17 19 -114 26 -429 7 -263 18 -580 40
-1120 28 -670 22 -1196 -16 -1440 -5 -36 -18 -135 -29 -220 -11 -85 -24 -177
-30 -205 -5 -27 -15 -88 -21 -135 -9 -62 -14 -79 -21 -65 -6 15 -7 13 -3 -8 6
-31 -38 -257 -90 -460 -19 -76 -35 -140 -35 -142 0 -3 428 -5 950 -5 523 0
950 3 950 8 0 4 -11 59 -24 122 -32 151 -45 268 -53 479 -8 224 17 1745 29
1749 5 3 5 9 0 15 -5 7 -12 161 -16 342 -3 182 -13 440 -21 575 -8 135 -15
286 -15 337 0 83 2 93 21 103 11 7 18 18 15 25 -7 18 10 29 20 14 5 -9 11 -7
21 6 7 11 13 15 14 9 0 -5 2 -40 4 -79 24 -391 34 -1362 14 -1349 -5 3 -9 -1
-9 -10 0 -8 5 -16 11 -18 7 -2 7 -262 -2 -863 -13 -951 -9 -1094 37 -1327 l27
-138 497 0 498 0 80 85 c81 86 145 177 157 228 5 18 0 51 -15 96 l-22 68 55
107 c73 141 83 185 62 262 -9 33 -19 69 -22 80 -4 18 8 28 84 69 48 27 123 70
165 97 43 26 80 48 83 48 2 0 37 22 77 49 149 101 255 236 381 486 36 71 169
309 188 335 9 14 47 84 83 155 103 202 141 388 115 550 -8 44 -12 130 -11 192
5 182 -26 290 -108 369 -21 21 -42 49 -45 62 -3 13 -17 42 -31 64 -21 33 -26
55 -28 113 -1 67 -6 81 -63 196 -45 91 -82 189 -138 369 -115 370 -233 716
-314 919 -22 57 -41 107 -41 111 0 4 22 23 49 41 76 52 90 98 46 155 l-26 34
44 53 c23 29 48 66 54 82 6 17 19 51 28 76 l17 47 96 12 c201 24 213 34 151
126 -24 35 -71 86 -104 113 -68 54 -288 197 -362 235 -46 23 -81 52 -72 60 2
2 38 21 79 42 41 20 95 51 119 68 73 52 117 172 75 207 -11 9 -67 16 -167 21
-185 9 -357 25 -381 34 -14 5 -7 15 41 58 242 212 285 285 323 546 25 177 42
246 80 327 17 35 30 65 30 68 0 3 18 42 41 88 121 243 186 513 249 1032 31
251 14 399 -76 673 -124 376 -250 584 -553 910 -124 134 -320 308 -662 587
-40 33 -134 114 -209 180 -142 127 -294 251 -370 302 -124 84 -258 130 -654
227 -243 60 -452 125 -696 215 -186 70 -279 92 -395 96 -60 2 -121 1 -135 -1z
m110 -162 c49 -8 44 -9 -50 -9 -138 0 -181 -12 -332 -89 -38 -19 -68 -33 -68
-30 0 8 148 86 207 108 69 26 176 47 183 36 3 -4 30 -11 60 -16z m-23 22 c-3
-3 -12 -4 -19 -1 -8 3 -5 6 6 6 11 1 17 -2 13 -5z m136 -5 c59 -16 40 -18 -43
-4 -58 10 -66 13 -35 14 22 0 57 -4 78 -10z m69 -53 c24 -2 51 -7 61 -11 10
-4 24 -2 32 5 12 10 23 8 57 -8 24 -12 71 -29 106 -38 34 -10 58 -20 52 -24
-5 -3 18 -12 53 -20 34 -7 76 -19 92 -26 53 -23 256 -81 402 -115 77 -19 139
-37 137 -40 -2 -4 4 -5 13 -3 24 6 256 -60 246 -70 -4 -4 6 -5 22 -2 25 6 27
5 8 -3 -12 -6 -32 -8 -45 -6 -13 3 -75 14 -138 25 -107 20 -329 72 -445 105
-27 8 -75 21 -105 29 -81 22 -391 135 -400 146 -3 4 -50 17 -105 29 -55 13
-107 28 -115 33 -11 6 -9 7 7 3 12 -3 41 -7 65 -9z m-647 -106 c-3 -5 -12 -10
-18 -10 -7 0 -6 4 3 10 19 12 23 12 15 0z m-1314 -249 c-11 -14 -30 -43 -41
-63 -11 -21 -23 -38 -26 -38 -2 0 0 9 6 19 15 29 12 44 -7 37 -9 -4 0 12 20
36 20 24 40 42 46 41 6 -2 11 3 12 10 0 8 2 8 6 -2 3 -7 -4 -25 -16 -40z m966
3 c-3 -3 -12 -4 -19 -1 -8 3 -5 6 6 6 11 1 17 -2 13 -5z m-22 -24 c-12 -19
-95 -71 -105 -65 -5 3 -8 0 -5 -7 3 -7 -4 -19 -15 -26 -12 -7 -20 -8 -20 -2 0
5 5 10 11 10 5 0 7 5 3 12 -6 9 -9 9 -12 0 -2 -7 -13 -12 -25 -12 -22 -1 -22
-1 -3 -15 11 -8 15 -15 9 -15 -7 0 -15 5 -19 11 -3 6 -17 8 -32 4 -26 -6 -26
-6 -7 15 10 11 25 18 32 16 7 -3 13 -2 13 2 0 4 14 16 30 26 26 15 34 16 48 4
15 -11 16 -11 4 3 -11 14 -8 18 17 29 16 6 34 9 40 6 5 -4 12 -2 16 4 3 5 11
10 16 10 6 0 7 -4 4 -10z m-1020 -91 c10 -15 -6 -33 -16 -18 -8 12 -11 11 -19
-1 -7 -12 -9 -11 -8 6 2 21 33 30 43 13z m769 -44 c3 -9 0 -15 -8 -15 -7 0
-13 7 -13 15 0 8 4 15 8 15 4 0 9 -7 13 -15z m-44 -10 c-10 -12 -10 -15 0 -15
10 0 10 -3 -1 -16 -8 -10 -21 -13 -37 -9 -15 4 -21 2 -17 -5 3 -5 -1 -10 -10
-10 -9 0 -26 -10 -39 -23 -13 -13 -30 -24 -37 -24 -8 0 -23 -4 -34 -8 -16 -6
-16 -3 4 13 48 39 130 81 134 69 3 -9 8 -9 18 1 11 10 11 12 -1 12 -11 1 -10
5 4 15 25 19 32 19 16 0z m-786 -11 c3 -8 2 -12 -4 -9 -10 6 -34 -35 -44 -77
-3 -16 -2 -28 3 -28 9 0 26 47 23 63 -1 4 5 7 14 7 12 0 14 -4 7 -12 -6 -7
-16 -30 -22 -50 -7 -20 -19 -42 -28 -50 -14 -11 -15 -10 -9 10 4 13 3 22 -3
22 -5 0 -11 -10 -13 -22 -2 -13 -9 -22 -16 -20 -8 1 -10 -6 -6 -22 4 -18 0
-28 -17 -40 -13 -8 -20 -19 -16 -22 4 -4 0 -15 -9 -25 -9 -11 -14 -25 -10 -35
5 -14 4 -15 -8 -5 -11 9 -17 5 -30 -23 -9 -19 -13 -42 -10 -53 4 -13 3 -14 -4
-5 -7 11 -10 9 -15 -7 -3 -14 -1 -19 6 -15 7 3 4 -1 -5 -9 -10 -8 -18 -21 -18
-30 0 -9 -5 -19 -10 -22 -6 -4 -8 -11 -4 -16 3 -6 12 -3 20 8 19 25 17 13 -4
-34 -15 -34 -19 -38 -31 -26 -7 8 -15 12 -18 9 -3 -3 2 -12 11 -21 9 -9 16
-24 15 -33 0 -14 -2 -13 -9 3 -10 23 -11 21 -16 -20 -3 -30 -19 -72 -55 -151
-10 -23 -19 -46 -19 -53 0 -6 -3 -10 -7 -10 -18 3 -27 -2 -17 -9 15 -9 -56
-190 -73 -185 -7 3 -9 -4 -6 -18 4 -15 3 -20 -5 -15 -7 4 -17 -4 -24 -21 -7
-15 -16 -30 -19 -33 -12 -9 -48 -108 -42 -114 4 -3 1 -6 -6 -6 -14 0 -7 48 14
90 7 14 20 50 30 80 9 30 23 69 30 85 7 17 29 66 48 110 19 44 38 91 42 105 4
14 15 43 25 65 62 137 78 174 90 205 7 19 19 42 25 50 6 8 34 63 61 122 43 94
51 107 69 101 17 -5 18 -4 7 9 -10 12 -10 21 -1 42 7 14 16 23 20 20 5 -3 6 2
2 11 -3 10 -2 20 4 24 5 3 19 25 31 49 18 35 41 70 48 72 1 0 5 -7 8 -16z
m586 -112 c0 -13 -23 -32 -39 -32 -9 -1 -27 -10 -40 -21 -21 -17 -23 -22 -10
-30 10 -8 9 -9 -8 -4 -25 7 -42 -12 -19 -21 9 -3 16 -10 16 -16 0 -5 -9 -3
-21 5 -11 8 -30 13 -42 10 -21 -4 -21 -4 3 15 13 12 49 35 80 54 30 18 57 36
58 40 5 10 22 10 22 0z m12 -67 c-3 -5 -7 -4 -10 3 -2 7 -11 12 -20 12 -14 0
-14 2 -3 9 16 10 42 -8 33 -24z m3023 14 c28 -5 66 -11 86 -13 65 -6 242 -116
350 -218 71 -67 147 -160 142 -175 -2 -6 8 -14 23 -17 l28 -7 -28 -18 c-19
-13 -24 -20 -14 -23 7 -3 10 -9 5 -13 -7 -9 -32 9 -32 23 0 14 -33 53 -41 50
-12 -4 -84 75 -84 91 0 7 -4 10 -8 7 -4 -2 -8 4 -8 15 0 10 6 19 13 19 7 0 13
-5 13 -11 0 -5 5 -7 10 -4 17 10 -10 37 -31 32 -10 -3 -20 2 -23 10 -3 8 -1
11 4 8 5 -3 7 1 4 9 -3 8 -11 13 -19 10 -7 -3 -15 2 -18 10 -4 10 -13 13 -23
9 -13 -5 -15 -2 -10 15 4 11 2 23 -4 27 -6 3 -10 -3 -10 -17 0 -23 0 -22 -24
5 -21 24 -30 28 -55 22 -21 -4 -31 -3 -31 5 0 6 4 9 9 6 4 -3 17 1 27 9 17 12
14 13 -26 9 -42 -5 -44 -4 -26 10 20 16 20 16 0 16 -11 0 -25 -5 -30 -10 -7
-7 -18 -3 -33 12 -13 12 -35 23 -50 24 -14 2 -46 7 -71 11 l-45 7 35 6 c34 6
33 6 -25 18 -130 28 -233 33 -220 13 2 -5 -1 -8 -8 -7 -23 2 -172 -14 -217
-24 -142 -31 -233 -52 -295 -70 -38 -11 -76 -20 -83 -20 -19 0 -10 24 13 34
44 18 162 46 205 47 25 0 39 3 31 6 -12 5 86 42 112 43 18 0 5 -19 -15 -23
-13 -2 -5 -2 17 0 60 6 64 21 9 28 -75 10 -86 15 -19 9 76 -7 113 -7 200 4 79
9 215 5 290 -9z m-745 -39 c-8 -5 -22 -9 -30 -9 -10 0 -8 3 5 9 27 12 43 12
25 0z m-2450 -32 c29 -10 31 -12 14 -18 -10 -4 -24 -3 -31 2 -7 5 -18 6 -24 2
-9 -5 -7 -10 7 -15 18 -7 17 -8 -3 -8 -12 -1 -25 -6 -28 -11 -4 -6 -10 -8 -15
-5 -5 3 -22 -2 -37 -12 -15 -9 -26 -14 -23 -11 5 6 104 88 106 88 0 0 16 -5
34 -12z m2325 -58 c3 -5 -1 -10 -9 -10 -9 0 -16 5 -16 10 0 6 4 10 9 10 6 0
13 -4 16 -10z m-15 -38 c3 -2 -9 -1 -25 3 -20 4 -26 3 -17 -3 11 -7 9 -10 -7
-15 -23 -6 -24 12 -1 30 11 8 19 8 30 0 8 -6 17 -13 20 -15z m-2890 -11 c0 -5
-7 -11 -14 -14 -10 -4 -13 -1 -9 9 6 15 23 19 23 5z m2799 -18 c-12 -14 -62
-43 -75 -43 -3 0 -1 7 6 15 11 13 10 14 -6 8 -16 -6 -17 -5 -4 9 8 9 18 14 22
11 5 -2 18 3 30 11 25 18 44 11 27 -11z m1291 -25 c0 -13 -5 -9 -31 19 l-24
26 27 -19 c15 -10 28 -22 28 -26z m-1380 -20 c0 -13 -23 -5 -28 10 -2 7 2 10
12 6 9 -3 16 -11 16 -16z m-40 -8 c0 -5 -5 -10 -11 -10 -5 0 -7 5 -4 10 3 6 8
10 11 10 2 0 4 -4 4 -10z m1496 -31 c19 -22 19 -22 -3 -8 -13 8 -23 17 -23 21
0 12 6 9 26 -13z m-1770 -175 c-11 -7 -22 -12 -25 -9 -2 3 4 12 15 19 10 8 21
12 24 9 3 -2 -4 -11 -14 -19z m1448 17 c15 -6 16 -10 7 -16 -8 -4 -16 -3 -20
4 -5 7 -15 9 -26 5 -13 -5 -16 -4 -11 4 8 13 22 14 50 3z m618 -109 c4 -2 4
-11 1 -19 -5 -12 -2 -15 10 -10 21 8 46 -21 28 -32 -10 -6 -9 -10 4 -14 9 -4
13 -3 10 3 -10 16 11 12 25 -5 7 -8 16 -12 21 -9 5 3 6 -2 3 -10 -5 -13 2 -16
32 -18 22 0 44 -2 49 -3 6 -2 16 -3 23 -4 7 0 10 -6 6 -13 -4 -6 -3 -8 4 -5
17 11 238 -112 257 -144 4 -5 1 -17 -7 -26 -11 -14 -10 -15 10 -9 14 5 22 3
22 -4 0 -6 4 -9 9 -6 4 3 16 -3 26 -14 10 -11 21 -17 25 -15 8 5 153 -148 194
-205 14 -19 37 -55 51 -80 14 -25 39 -67 56 -95 64 -109 122 -249 175 -420 48
-153 65 -261 65 -395 0 -105 -24 -368 -38 -414 -3 -11 -16 -80 -28 -155 -54
-315 -92 -434 -240 -746 -23 -50 -48 -115 -54 -145 -6 -30 -18 -84 -26 -120
-8 -36 -22 -109 -31 -163 -19 -117 -28 -124 -14 -11 6 43 12 112 15 152 10
144 54 296 83 284 11 -4 13 0 7 18 -5 14 -3 20 3 16 6 -4 15 14 21 44 6 27 25
80 42 117 82 180 108 271 166 583 35 185 36 206 37 415 1 215 0 223 -32 362
-18 78 -39 155 -47 170 -8 15 -15 33 -15 39 0 23 -44 144 -91 247 -27 60 -49
115 -49 123 0 9 -4 13 -8 10 -10 -6 -55 82 -47 94 2 4 -2 13 -10 20 -13 11
-15 10 -10 -6 6 -18 6 -18 -7 0 -7 11 -38 49 -68 85 -31 36 -64 77 -73 91 -9
13 -17 21 -17 17 0 -5 -7 -1 -16 8 -9 8 -13 23 -10 32 5 13 4 14 -9 3 -12 -10
-15 -10 -15 4 0 9 5 16 12 16 6 0 8 3 5 6 -4 4 -13 2 -20 -5 -15 -12 -50 -5
-42 9 3 4 -6 11 -20 14 -14 4 -25 11 -25 16 0 6 -4 10 -9 10 -4 0 -41 22 -82
48 -41 27 -101 64 -134 82 -33 19 -62 37 -65 40 -3 4 -19 15 -37 25 -18 10
-29 23 -26 29 4 5 -1 7 -11 3 -13 -5 -32 8 -72 50 -30 31 -54 62 -54 69 0 8
-6 11 -15 8 -18 -7 -20 7 -4 23 8 8 20 1 43 -25 17 -21 34 -38 38 -40z m-1402
49 c0 -14 -18 -23 -30 -16 -6 4 -8 11 -5 16 8 12 35 12 35 0z m340 -1 c0 -5
-2 -10 -4 -10 -3 0 -8 5 -11 10 -3 6 -1 10 4 10 6 0 11 -4 11 -10z m29 -3 c8
-10 7 -14 -4 -14 -8 0 -15 6 -15 14 0 7 2 13 4 13 2 0 9 -6 15 -13z m1031 -8
c0 -6 -4 -7 -10 -4 -5 3 -10 11 -10 16 0 6 5 7 10 4 6 -3 10 -11 10 -16z
m-1023 -51 c-3 -8 -6 -5 -6 6 -1 11 2 17 5 13 3 -3 4 -12 1 -19z m350 -13 c0
-8 -4 -12 -9 -9 -4 3 -8 9 -8 15 0 5 4 9 8 9 5 0 9 -7 9 -15z m168 -20 c26
-21 27 -25 10 -25 -19 1 -65 32 -65 44 0 13 27 4 55 -19z m-675 -140 l0 -65
88 0 c271 0 486 -79 629 -231 26 -28 71 -69 98 -90 28 -21 75 -61 105 -89 56
-51 80 -62 80 -35 0 8 5 15 11 15 6 0 9 -9 6 -20 -4 -15 6 -29 41 -57 26 -20
86 -77 133 -126 80 -83 85 -87 83 -58 -1 18 4 32 12 35 8 3 14 4 15 3 0 -1 2
-22 5 -47 8 -71 95 -180 132 -164 39 16 64 12 95 -15 l31 -29 -42 -7 -42 -7
21 -39 c23 -45 42 -71 82 -109 23 -22 30 -40 37 -96 11 -94 28 -515 35 -880 6
-300 6 -302 -15 -317 -14 -10 -26 -36 -35 -73 -19 -80 -70 -264 -80 -289 -5
-11 -17 -32 -27 -47 -10 -14 -18 -39 -18 -55 0 -29 -35 -72 -42 -51 -7 19 -44
-55 -50 -98 -3 -22 -15 -61 -27 -86 -11 -26 -21 -54 -21 -62 0 -9 -23 -37 -52
-63 -115 -106 -111 -101 -104 -141 8 -53 -1 -81 -25 -75 -23 6 -27 58 -5 66 8
3 14 15 13 26 -1 16 -7 19 -30 17 -40 -5 -51 -19 -53 -71 -1 -25 -7 -52 -13
-59 -7 -8 -15 -30 -18 -50 -4 -28 -10 -36 -27 -36 -25 0 -205 -222 -278 -344
-46 -76 -64 -89 -33 -23 15 32 15 32 -2 7 -35 -51 -151 -155 -161 -145 -4 3 3
25 15 48 41 80 53 146 55 287 1 88 -1 99 -27 140 -33 52 -65 88 -65 72 0 -6
-13 -19 -30 -29 -16 -9 -30 -24 -30 -31 0 -8 -6 -12 -14 -9 -9 4 -17 -2 -21
-15 -4 -11 -18 -36 -31 -56 -25 -36 -94 -177 -94 -191 0 -4 -9 -16 -20 -26
-11 -10 -20 -21 -20 -25 0 -14 -110 -127 -149 -155 -22 -14 -62 -32 -90 -40
-68 -18 -233 -20 -350 -5 -100 12 -96 10 -308 146 -29 19 -61 34 -71 34 -11 0
-31 9 -46 21 -14 11 -26 17 -26 14 0 -4 -39 41 -87 100 -49 59 -109 132 -136
163 -26 32 -56 82 -68 112 -11 30 -27 61 -36 67 -14 11 -18 8 -29 -24 -12 -33
-10 -42 16 -97 l28 -61 -41 -11 c-23 -5 -54 -9 -69 -8 -16 2 -28 1 -28 -1 0
-11 52 -120 59 -125 5 -3 17 -23 28 -45 10 -22 24 -49 31 -60 24 -42 101 -212
108 -240 l7 -28 -72 6 c-80 7 -90 12 -132 74 l-30 43 -80 0 c-44 0 -90 5 -102
12 -27 14 -55 44 -62 69 -4 11 -14 19 -22 19 -9 0 -14 3 -10 6 3 4 -20 26 -52
50 -73 54 -114 100 -180 197 -49 73 -71 98 -71 80 0 -5 -9 -9 -19 -9 -24 0
-53 47 -33 53 19 7 14 40 -10 63 -26 23 -106 151 -139 220 -43 91 -54 110 -61
110 -5 0 -8 6 -8 14 0 8 -6 16 -14 19 -8 3 -16 25 -19 49 -2 24 -12 68 -21 98
-9 30 -21 69 -25 85 -7 25 -9 27 -16 12 -4 -10 -5 -34 -2 -53 5 -29 3 -35 -8
-30 -11 4 -15 -2 -15 -20 0 -43 -19 -16 -32 46 -6 32 -15 57 -20 54 -4 -3 -5
-16 -2 -29 3 -13 2 -31 -4 -40 -5 -9 -7 -29 -4 -43 5 -24 6 -25 14 -7 6 15 7
12 4 -11 -4 -25 -1 -33 13 -37 14 -3 17 -11 14 -32 -3 -14 -11 -29 -18 -31
-10 -4 -7 -22 10 -72 35 -103 37 -119 19 -126 -9 -3 -37 -9 -63 -12 -25 -2
-53 -7 -62 -10 -16 -5 -25 6 -131 170 -32 50 -35 76 -8 76 16 0 20 7 21 33 1
17 3 52 5 77 1 25 5 89 8 143 l6 97 -35 39 c-42 46 -47 81 -10 81 26 0 58 41
37 48 -6 2 -8 10 -5 18 3 8 -4 17 -20 23 -39 15 -44 44 -53 326 -14 451 -13
475 28 580 39 102 55 120 208 245 51 41 118 97 149 123 31 27 70 55 86 62 17
7 64 44 105 82 41 38 104 91 140 118 111 82 120 93 120 141 0 24 5 46 10 49 6
3 11 0 11 -7 1 -7 2 -19 3 -27 2 -28 25 -21 75 23 75 66 108 107 130 159 22
51 41 61 41 23 0 -23 2 -24 25 -12 51 26 115 94 115 120 0 14 10 36 22 48 l21
21 -6 -32 -7 -31 28 15 c36 19 68 47 76 65 3 8 15 29 25 45 11 17 20 42 20 58
1 22 6 27 26 27 20 0 25 -5 25 -25 0 -69 81 -14 128 87 28 60 41 69 62 43 9
-10 9 -15 1 -15 -6 0 -11 -7 -11 -15 0 -8 -4 -15 -10 -15 -5 0 -10 -9 -10 -20
0 -28 11 -25 87 24 37 24 94 58 126 76 50 28 57 36 58 63 l2 32 6 -32 6 -31
90 23 c90 22 262 44 385 48 l65 2 3 68 c3 59 5 67 22 67 18 0 20 -7 20 -65z
m180 41 c0 -11 -19 -15 -25 -6 -3 5 1 10 9 10 9 0 16 -2 16 -4z m141 -23 c-8
-15 -10 -15 -11 -2 0 17 10 32 18 25 2 -3 -1 -13 -7 -23z m-561 13 c0 -3 -4
-8 -10 -11 -5 -3 -10 -1 -10 4 0 6 5 11 10 11 6 0 10 -2 10 -4z m37 -12 c-3
-3 -12 -4 -19 -1 -8 3 -5 6 6 6 11 1 17 -2 13 -5z m1005 -41 c2 -5 20 -16 42
-26 21 -10 36 -20 33 -23 -3 -4 -20 1 -38 10 -18 9 -38 16 -46 16 -7 0 -13 7
-13 15 0 15 16 21 22 8z m-1532 -48 c0 -8 -5 -24 -12 -34 -9 -16 -16 -17 -35
-8 -30 13 -29 19 5 39 34 22 42 22 42 3z m1400 -36 c0 -21 -4 -39 -10 -39 -5
0 -10 21 -10 46 0 27 4 43 10 39 6 -3 10 -24 10 -46z m-4269 -96 c-8 -15 -10
-15 -11 -2 0 17 10 32 18 25 2 -3 -1 -13 -7 -23z m-17 -57 c-3 -15 -8 -25 -11
-23 -2 3 -1 17 3 31 3 15 8 25 11 23 2 -3 1 -17 -3 -31z m4446 30 c0 -11 -19
-15 -25 -6 -3 5 1 10 9 10 9 0 16 -2 16 -4z m-4473 -98 c-3 -8 -6 -5 -6 6 -1
11 2 17 5 13 3 -3 4 -12 1 -19z m4947 -57 c16 -17 23 -31 18 -35 -6 -4 -13 -2
-17 4 -4 6 -11 8 -16 4 -5 -3 -15 -1 -22 4 -7 6 -16 10 -22 9 -5 -1 -11 8 -13
21 -5 33 37 29 72 -7z m-5014 -34 c0 -7 -7 -22 -15 -33 -13 -17 -13 -16 -3 14
13 34 18 40 18 19z m4730 -8 c0 -6 -4 -7 -10 -4 -5 3 -10 11 -10 16 0 6 5 7
10 4 6 -3 10 -11 10 -16z m-2411 -36 c10 -17 10 -17 11 0 0 22 29 22 37 1 9
-24 -22 -44 -55 -35 -15 4 -26 10 -24 14 1 4 2 14 2 22 0 20 17 19 29 -2z
m-729 3 c0 -3 -4 -8 -10 -11 -5 -3 -10 -1 -10 4 0 6 5 11 10 11 6 0 10 -2 10
-4z m3553 -43 c-5 -12 -2 -15 10 -10 11 4 20 -1 27 -13 12 -23 8 -25 -23 -7
-12 6 -23 12 -24 12 -1 0 -5 14 -9 30 -7 27 -6 29 9 17 9 -8 13 -20 10 -29z
m-3583 17 c0 -5 -6 -10 -14 -10 -8 0 -16 -5 -18 -11 -2 -7 -11 -10 -18 -7 -11
3 -6 10 15 21 36 20 35 19 35 7z m-80 -54 c-17 -21 -100 -67 -100 -56 0 10
103 79 109 74 2 -2 -2 -10 -9 -18z m3675 -118 c23 -49 25 -75 4 -62 -21 13
-51 114 -34 114 3 0 17 -23 30 -52z m-3030 22 c3 -5 -4 -10 -16 -10 -16 0 -20
-5 -16 -19 2 -10 1 -25 -4 -32 -6 -9 -9 -2 -9 22 0 20 3 39 7 42 10 10 31 8
38 -3z m-225 -134 c0 -16 -28 -42 -36 -33 -7 6 18 47 28 47 5 0 8 -6 8 -14z
m3270 -67 c0 -6 -4 -7 -10 -4 -5 3 -10 11 -10 16 0 6 5 7 10 4 6 -3 10 -11 10
-16z m-3990 -23 c0 -2 -7 -7 -16 -10 -8 -3 -12 -2 -9 4 6 10 25 14 25 6z
m-178 -132 c-9 -16 -10 -14 -9 8 1 15 6 23 11 18 4 -4 4 -16 -2 -26z m8 -34
c-6 -11 -13 -20 -16 -20 -2 0 0 9 6 20 6 11 13 20 16 20 2 0 0 -9 -6 -20z
m-55 1 c3 -6 -5 -15 -17 -21 -21 -10 -21 -10 -6 3 10 8 15 17 11 20 -3 4 -4 7
0 7 3 0 8 -4 12 -9z m645 -21 c0 -11 -4 -20 -9 -20 -5 0 -7 9 -4 20 3 11 7 20
9 20 2 0 4 -9 4 -20z m-641 -35 c-13 -13 -28 -25 -32 -25 -5 0 -1 7 7 16 9 8
16 20 16 25 0 6 5 7 10 4 6 -3 10 -1 10 6 0 7 3 9 6 6 4 -4 -4 -18 -17 -32z
m-56 -59 c-10 -13 -20 -22 -22 -20 -4 4 29 44 36 44 2 0 -4 -11 -14 -24z
m-844 -116 c0 -14 -6 -34 -14 -44 -8 -11 -15 -32 -15 -47 0 -15 -5 -31 -11
-35 -6 -3 -9 -19 -5 -35 5 -27 -8 -42 -16 -18 -2 6 -4 -18 -5 -52 0 -47 2 -57
8 -39 10 29 7 0 -12 -138 -14 -100 -23 -104 -11 -4 4 39 5 69 0 66 -4 -3 -8
-20 -8 -39 0 -19 -5 -37 -10 -40 -6 -4 -8 -10 -5 -15 3 -5 1 -19 -4 -32 -6
-13 -13 -59 -17 -103 -4 -52 -9 -73 -14 -60 -4 12 -11 -36 -16 -115 -9 -132
-5 -199 7 -110 4 30 6 13 6 -50 0 -52 -2 -74 -4 -47 -2 26 -8 47 -12 47 -12 0
-7 -93 7 -117 6 -12 19 -53 27 -92 14 -67 82 -223 128 -293 32 -50 59 -98 53
-98 -15 0 -136 192 -136 216 0 8 -4 13 -8 10 -14 -9 -109 186 -122 250 -19 88
-8 367 18 464 11 41 28 113 37 160 9 47 22 105 30 130 8 25 19 72 25 105 19
100 40 157 56 151 8 -3 14 0 13 7 -1 6 0 32 1 57 l2 45 13 -30 c8 -16 14 -41
14 -55z m1411 55 c11 -13 10 -14 -4 -9 -10 4 -16 1 -16 -7 0 -11 -2 -11 -10 1
-7 12 1 28 16 30 1 0 7 -7 14 -15z m-122 -72 c-9 -10 -18 -25 -21 -33 -3 -8
-6 -1 -6 17 -1 22 4 33 17 35 25 6 27 1 10 -19z m-1301 -100 c-3 -10 -5 -2 -5
17 0 19 2 27 5 18 2 -10 2 -26 0 -35z m633 16 c0 -9 -20 -23 -38 -25 -6 -1
-10 2 -6 7 3 5 10 6 16 3 7 -5 9 -2 6 8 -4 9 0 15 8 15 8 0 14 -4 14 -8z m-6
-54 c-4 -8 -11 -15 -16 -15 -6 0 -5 6 2 15 7 8 14 15 16 15 2 0 1 -7 -2 -15z
m-44 -10 c-10 -12 -10 -15 4 -15 9 0 16 -4 16 -10 0 -5 -9 -10 -19 -10 -10 0
-21 -7 -25 -15 -3 -8 -10 -15 -16 -15 -6 0 -4 7 4 16 9 8 16 23 16 32 0 13 -3
13 -16 -4 -14 -18 -15 -18 -4 4 6 12 15 20 21 17 5 -4 9 -1 9 4 0 6 5 11 11
11 8 0 8 -5 -1 -15z m-73 -97 c-3 -8 -6 -5 -6 6 -1 11 2 17 5 13 3 -3 4 -12 1
-19z m33 -12 c0 -2 -8 -10 -17 -17 -16 -13 -17 -12 -4 4 13 16 21 21 21 13z
m-40 -56 c0 -5 -5 -10 -11 -10 -5 0 -7 5 -4 10 3 6 8 10 11 10 2 0 4 -4 4 -10z
m-36 -50 c-10 -16 -20 -27 -23 -25 -6 7 21 55 31 55 5 0 1 -13 -8 -30z m-34
-44 c0 -20 -46 -142 -60 -161 -4 -5 -22 -62 -39 -125 -72 -257 -62 -529 31
-865 10 -38 27 -99 37 -135 20 -74 60 -179 97 -257 19 -40 23 -57 15 -71 -7
-13 -7 -22 1 -30 7 -7 8 -12 2 -12 -9 0 -50 81 -105 205 -66 150 -132 368
-170 557 -34 171 -40 373 -15 494 8 38 21 105 30 149 15 73 62 204 80 223 4 4
5 -11 2 -33 -6 -40 -6 -40 21 17 28 57 43 72 43 42 0 -8 5 -12 10 -9 8 5 7 11
0 20 -7 8 -9 19 -5 26 9 14 25 -7 25 -35z m703 -1113 c-13 -2 -23 -9 -23 -14
0 -5 -4 -9 -8 -9 -5 0 -9 7 -9 15 0 10 10 15 31 14 24 -1 26 -3 9 -6z m-9
-200 c-2 -21 -3 -41 -3 -45 -1 -5 -5 -8 -11 -8 -5 0 -10 20 -10 45 0 31 4 45
13 45 10 0 13 -11 11 -37z m4026 -39 c0 -3 -5 -15 -11 -26 -8 -14 -8 -23 0
-31 6 -6 11 -23 11 -39 0 -20 -4 -26 -15 -22 -8 4 -15 16 -15 28 0 17 -2 18
-10 6 -8 -12 -10 -12 -16 3 -3 9 -3 25 1 35 7 16 8 15 16 -3 7 -15 8 -11 6 18
-2 30 0 37 15 37 10 0 18 -3 18 -6z m-10 -196 l0 -43 -50 -1 c-48 0 -50 1 -50
27 0 50 9 59 56 59 l44 0 0 -42z m-4589 -117 c10 -13 16 -27 13 -32 -3 -5 0
-9 5 -9 6 0 11 -6 11 -12 0 -7 18 -37 40 -66 22 -29 40 -55 40 -58 0 -3 12
-21 26 -40 25 -33 25 -34 6 -34 -12 0 -24 5 -28 12 -5 7 -3 8 6 3 8 -5 11 -3
8 6 -3 8 -10 13 -16 12 -15 -3 -64 65 -56 79 4 7 3 8 -4 4 -6 -4 -16 4 -23 16
-7 13 -16 26 -21 29 -6 4 -11 18 -11 32 -1 14 -5 23 -9 21 -9 -6 -21 33 -13
45 3 5 1 12 -5 16 -6 4 -7 11 -3 18 5 8 8 7 11 -3 3 -8 13 -26 23 -39z m958
-101 c6 -28 11 -55 11 -60 0 -17 -60 12 -85 42 -32 37 -29 70 5 79 39 9 57 -6
69 -61z m1046 -80 c3 -5 1 -10 -4 -10 -6 0 -11 5 -11 10 0 6 2 10 4 10 3 0 8
-4 11 -10z m2262 -47 c-3 -10 -5 -2 -5 17 0 19 2 27 5 18 2 -10 2 -26 0 -35z
m-4083 -66 c-6 -20 -5 -21 11 -7 16 13 18 13 13 0 -3 -8 2 -24 11 -34 13 -17
11 -16 -13 2 -16 13 -36 33 -45 45 -14 21 -14 21 4 7 17 -14 18 -13 12 3 -4
11 -3 16 4 12 5 -4 7 -16 3 -28z m714 0 c2 -19 -1 -27 -12 -27 -9 0 -16 5 -16
11 0 5 -5 7 -12 3 -8 -5 -9 -2 -5 10 4 10 7 22 7 28 0 23 35 1 38 -25z m3369
-24 c-3 -10 -5 -2 -5 17 0 19 2 27 5 18 2 -10 2 -26 0 -35z m-4522 -74 c10
-15 -1 -23 -20 -15 -9 3 -13 10 -10 16 8 13 22 13 30 -1z m3736 -46 c-12 -20
-14 -14 -5 12 4 9 9 14 11 11 3 -2 0 -13 -6 -23z m-1381 4 c0 -12 -12 -21 -62
-45 -12 -6 -9 36 2 43 6 4 17 1 25 -5 12 -10 16 -9 21 4 7 19 14 21 14 3z
m-1100 -52 c0 -14 -4 -25 -10 -25 -5 0 -9 11 -8 25 1 14 6 25 10 25 4 0 8 -11
8 -25z m-1200 -19 c0 -2 -7 -7 -16 -10 -8 -3 -12 -2 -9 4 6 10 25 14 25 6z
m5073 -28 c76 1 143 0 148 -4 26 -16 -54 -65 -148 -89 -53 -14 -61 -14 -96 1
-28 13 -41 14 -49 6 -23 -23 85 -107 272 -215 l85 -48 -48 4 c-26 3 -76 18
-110 35 -110 55 -286 182 -308 224 -12 22 -1 48 21 48 10 0 23 7 30 15 10 12
9 15 -4 15 -10 0 -14 5 -11 10 4 7 20 8 43 3 20 -4 99 -7 175 -5z m-5624 -69
c-22 -13 -31 -11 -17 5 7 8 17 12 22 9 4 -3 2 -9 -5 -14z m-29 -29 c0 -5 -2
-10 -4 -10 -3 0 -8 5 -11 10 -3 6 -1 10 4 10 6 0 11 -4 11 -10z m-20 -20 c0
-5 -7 -6 -17 -3 -11 4 -14 3 -9 -5 8 -14 -17 -55 -27 -45 -11 10 -8 19 14 47
19 24 39 27 39 6z m-92 -95 c6 11 12 16 12 11 0 -5 -7 -18 -17 -28 -13 -15
-14 -23 -5 -43 l12 -25 -28 17 c-50 33 -51 36 -23 60 23 20 26 21 32 6 5 -15
7 -15 17 2z m847 -35 c2 -10 -6 -17 -21 -18 -13 -1 -24 3 -24 8 0 6 5 10 11
10 5 0 7 5 3 11 -4 7 0 10 11 7 10 -1 19 -10 20 -18z m-915 -20 c13 -9 13 -11
0 -20 -22 -15 -30 -12 -30 10 0 22 8 25 30 10z m54 -53 c15 -19 26 -39 26 -45
0 -7 5 -12 11 -12 6 0 9 -7 5 -15 -3 -8 2 -19 12 -24 9 -5 14 -13 10 -16 -4
-4 -26 14 -50 41 -24 26 -51 56 -62 67 -15 16 -16 21 -5 28 22 13 26 11 53
-24z m1445 -20 c20 -10 26 -20 26 -44 0 -27 5 -35 37 -49 20 -9 47 -27 58 -39
21 -23 21 -24 3 -33 -10 -6 -52 -17 -93 -26 -98 -20 -229 -52 -262 -65 -23 -8
-25 -7 -21 9 3 10 21 37 40 59 19 23 31 46 28 52 -7 10 -107 6 -179 -8 -40 -7
-30 5 77 94 l92 76 84 -7 c46 -3 96 -12 110 -19z m-1588 -53 c12 -15 11 -16
-9 -10 -15 5 -24 3 -28 -8 -3 -8 -13 -17 -22 -21 -14 -5 -14 -4 1 13 9 10 14
22 10 27 -5 4 -3 5 4 1 6 -3 14 -2 18 4 8 13 10 13 26 -6z m-11 -21 c-1 -5 -8
-19 -16 -33 -8 -14 -13 -17 -10 -7 3 10 6 25 6 33 0 8 5 14 10 14 6 0 10 -3
10 -7z m5503 -30 c-4 -11 -3 -14 5 -9 15 9 31 -7 57 -56 10 -21 20 -36 21 -35
5 5 -22 77 -28 77 -5 0 -8 5 -8 11 0 15 134 5 206 -15 27 -7 114 -32 194 -54
80 -23 188 -48 240 -57 146 -24 146 -24 129 -41 -19 -19 -120 -36 -186 -32
-66 4 -68 -9 -6 -48 59 -36 93 -71 93 -95 0 -27 -8 -28 -99 -18 -55 6 -88 6
-94 0 -7 -7 11 -33 51 -76 111 -118 127 -186 27 -111 -168 128 -257 182 -276
170 -6 -3 -15 -1 -22 5 -25 20 -100 31 -139 19 -21 -6 -38 -14 -38 -18 0 -13
-120 19 -146 39 -15 12 -31 21 -36 21 -15 0 -68 40 -68 52 0 5 7 7 16 4 12 -4
15 -2 11 9 -6 14 5 17 83 28 8 2 -30 13 -85 26 -55 13 -113 27 -128 32 -17 5
-25 5 -22 -1 8 -13 -2 -13 -26 1 -20 10 -20 11 -2 24 17 13 16 14 -10 15 -25
0 -47 23 -34 36 3 3 39 6 79 6 78 -1 171 -28 147 -43 -8 -5 -2 -9 17 -11 18
-2 28 -8 26 -16 -1 -8 2 -11 8 -7 6 3 50 -6 100 -21 62 -20 92 -34 99 -49 9
-18 10 -18 10 -2 1 11 -31 49 -75 89 -73 69 -121 139 -109 158 10 17 25 11 18
-7z m-5247 -5 c4 -7 3 -8 -4 -4 -7 4 -12 3 -12 -3 0 -5 5 -13 10 -16 6 -3 10
-11 10 -17 0 -5 -9 0 -19 13 -19 23 -19 39 -1 39 5 0 12 -5 16 -12z m-326 -27
c-8 -30 -38 -82 -53 -92 -5 -4 -4 -10 3 -14 8 -5 6 -13 -7 -29 -28 -32 -66
-112 -60 -128 3 -7 6 -3 6 10 1 12 5 22 9 22 5 0 17 18 28 40 16 34 34 52 34
34 0 -3 -27 -58 -59 -122 -79 -157 -112 -235 -156 -372 -20 -63 -40 -123 -45
-132 -5 -9 -18 -52 -30 -95 -11 -43 -34 -123 -51 -178 -27 -89 -43 -145 -81
-293 -7 -28 -15 -41 -24 -38 -7 3 -15 0 -17 -7 -2 -7 -3 12 -2 42 2 39 0 49
-7 37 -15 -27 -15 -101 -1 -99 18 4 25 -37 13 -72 -8 -26 -9 -24 -4 14 4 31 3
41 -5 37 -6 -4 -11 -15 -11 -25 0 -10 -6 -23 -13 -30 -10 -8 -12 -25 -7 -63 9
-65 2 -130 -13 -121 -6 4 -8 0 -4 -10 3 -9 3 -27 -2 -39 -12 -33 -23 63 -18
167 3 71 41 243 67 300 5 11 18 49 29 85 35 113 121 357 176 500 20 52 46 122
56 155 11 32 23 62 27 65 4 3 16 31 27 63 11 32 21 53 23 48 7 -20 24 -11 19
9 -3 13 1 21 14 25 15 5 17 10 8 26 -11 21 -4 54 15 79 7 8 21 35 31 60 21 50
85 170 90 170 2 0 0 -13 -5 -29z m350 -21 c-6 -11 -13 -20 -16 -20 -2 0 0 9 6
20 6 11 13 20 16 20 2 0 0 -9 -6 -20z m-337 -25 c-3 -9 -8 -14 -10 -11 -3 3
-2 9 2 15 9 16 15 13 8 -4z m443 -87 c19 -21 19 -21 -1 -15 -19 7 -19 6 -2 -7
9 -7 17 -18 17 -24 0 -6 3 -12 8 -14 8 -3 73 -100 91 -135 29 -58 5 -38 -41
34 -29 44 -66 98 -81 121 -16 22 -26 46 -22 51 8 15 9 14 31 -11z m1827 7 c-1
-5 -11 -11 -23 -13 -33 -5 -23 -37 20 -66 54 -36 91 -42 131 -22 25 13 34 14
40 4 5 -7 3 -16 -4 -21 -7 -5 -3 -6 11 -2 13 4 22 2 22 -4 0 -6 -5 -11 -12
-11 -6 0 -9 -2 -6 -5 3 -3 17 -1 32 5 15 5 25 6 22 1 -6 -8 21 -20 57 -25 19
-3 19 -3 11 18 -3 8 -12 12 -20 9 -8 -3 -14 0 -14 6 0 15 32 14 55 -3 19 -14
19 -15 2 -33 -9 -11 -17 -24 -17 -30 0 -6 -6 -16 -14 -22 -11 -9 -15 -7 -19
11 -8 28 -20 17 -23 -19 -1 -16 0 -22 3 -15 3 6 9 10 13 7 9 -6 -20 -51 -134
-210 -35 -49 -79 -112 -98 -139 -60 -87 -90 -119 -100 -104 -7 9 -8 6 -5 -10
3 -13 1 -20 -5 -16 -5 3 -39 -21 -76 -53 -117 -103 -230 -183 -259 -183 -5 0
-24 38 -42 85 -34 83 -35 85 -69 85 -18 0 -74 -14 -123 -31 -49 -17 -94 -29
-99 -27 -11 3 14 37 95 127 44 50 47 56 28 59 -11 2 -63 -13 -114 -32 -122
-45 -201 -68 -197 -56 2 7 162 180 249 271 14 14 58 65 98 112 40 48 81 89 92
92 11 4 17 11 14 16 -4 5 -1 9 5 9 6 0 9 4 6 9 -3 4 6 19 19 31 14 13 25 19
26 14 0 -5 5 0 10 11 8 17 8 15 4 -7 -3 -16 -1 -28 5 -28 11 0 13 12 10 49 -1
20 2 23 19 18 12 -3 19 -1 15 4 -3 5 0 9 6 9 7 0 21 12 32 26 12 15 26 23 36
19 8 -3 37 12 68 36 30 23 69 45 87 49 43 11 133 7 130 -5z m2815 -91 c31 -8
75 -17 96 -20 21 -3 58 -18 80 -33 23 -16 57 -35 77 -44 19 -8 64 -32 99 -53
36 -22 82 -47 102 -57 20 -10 40 -22 43 -27 8 -13 -1 -13 -24 1 -13 9 -23 9
-37 0 -17 -10 -15 -10 9 -5 21 5 26 3 22 -8 -5 -12 115 -91 234 -153 45 -24
89 -70 97 -102 4 -12 10 -20 15 -17 10 6 11 1 3 -19 -5 -13 -13 -13 -62 -2
-31 8 -58 12 -60 10 -2 -1 20 -29 49 -61 97 -111 159 -205 159 -244 0 -5 -35
8 -77 29 -87 44 -133 59 -133 43 0 -6 16 -38 36 -72 48 -82 67 -131 56 -142
-8 -8 -53 38 -345 358 -64 71 -136 145 -159 164 -23 19 -58 52 -77 73 -19 20
-38 37 -42 37 -9 0 -69 59 -69 68 0 4 -16 22 -35 41 -19 19 -35 37 -35 41 0 4
-12 12 -26 18 -14 7 -22 17 -19 22 3 6 -3 10 -13 10 -13 0 -22 9 -26 25 -4 14
-13 25 -22 25 -11 0 -13 6 -9 20 6 18 3 20 -20 14 -20 -5 -32 0 -55 22 -72 70
-7 85 168 38z m-1728 -144 c13 -9 11 -13 -10 -30 -14 -11 -28 -20 -32 -20 -18
0 -6 -16 21 -28 42 -18 109 -91 117 -125 3 -16 3 -44 -1 -63 -5 -27 -10 -34
-23 -30 -9 3 -22 2 -28 -2 -14 -9 -27 -62 -15 -62 5 0 12 10 14 23 3 15 5 11
6 -13 1 -26 4 -31 11 -20 15 24 22 5 8 -26 -17 -40 -16 -40 -33 -18 -8 10 -15
14 -15 7 0 -6 5 -15 10 -18 14 -9 12 -31 -3 -47 -15 -15 -37 -114 -37 -165 0
-35 -8 -41 -28 -21 -10 10 -15 10 -22 -2 -7 -11 -4 -16 11 -18 16 -3 18 -6 8
-18 -9 -11 -8 -14 4 -14 8 0 18 6 20 13 3 6 6 -2 6 -20 1 -18 -8 -57 -20 -88
-14 -38 -20 -73 -17 -108 2 -41 0 -52 -12 -52 -9 0 -14 8 -13 20 1 11 3 55 4
98 1 63 4 77 18 78 12 0 11 2 -4 9 -11 5 -17 9 -13 9 4 1 0 17 -8 36 -7 19
-14 48 -14 65 0 46 -14 36 -40 -27 -25 -63 -148 -315 -157 -323 -3 -3 -2 5 1
18 8 23 7 23 -44 26 -29 1 -59 52 -61 101 0 17 -6 48 -14 70 -11 34 -13 36
-15 15 l-2 -25 -8 25 c-6 20 -8 21 -9 5 -1 -14 -6 -9 -20 18 -31 60 -68 104
-127 148 l-54 41 22 37 c18 31 231 322 273 373 8 9 21 28 31 43 9 14 19 23 22
21 2 -3 16 4 30 14 13 11 29 20 35 20 6 0 18 6 26 14 18 15 121 44 161 45 14
0 32 -4 40 -9z m2401 -67 c13 -15 12 -15 -8 -4 -24 12 -29 21 -14 21 5 0 15
-7 22 -17z m-1394 -33 c28 -10 93 -47 145 -82 51 -36 100 -67 108 -71 24 -9
180 -137 180 -148 0 -6 -4 -7 -10 -4 -5 3 -10 2 -10 -4 0 -17 22 -24 32 -10 8
11 9 10 4 -3 -3 -10 -1 -20 4 -23 6 -4 10 -1 10 6 0 7 8 5 20 -6 11 -10 20
-24 20 -32 0 -8 5 -11 12 -7 8 5 9 2 5 -9 -4 -11 -1 -17 8 -17 8 0 15 -4 15
-10 0 -18 -18 -11 -42 18 -13 15 -52 47 -86 70 l-63 44 22 -39 c12 -21 39 -62
60 -92 22 -30 39 -62 39 -72 0 -11 5 -39 12 -64 10 -37 10 -50 -1 -67 -9 -15
-11 -42 -6 -98 6 -63 4 -78 -8 -83 -8 -3 -18 -22 -22 -43 -4 -21 -14 -52 -22
-69 -14 -26 -55 -156 -70 -222 -3 -13 -13 -23 -23 -23 -20 0 -34 -40 -20 -54
6 -6 10 -33 10 -61 -1 -47 -2 -49 -16 -30 -8 11 -48 83 -88 160 -40 77 -89
165 -109 195 -66 98 -72 108 -53 86 30 -37 16 0 -19 50 -19 27 -35 42 -35 34
0 -9 -10 -4 -25 15 -13 17 -22 36 -20 43 3 7 -6 17 -18 21 -32 12 -74 78 -82
129 -4 23 -10 40 -15 37 -5 -3 -11 30 -15 72 -3 43 -10 108 -16 145 -12 85
-11 98 2 98 5 0 8 -4 4 -9 -3 -5 -1 -12 5 -16 5 -3 10 2 10 12 0 14 2 15 9 4
5 -8 7 -20 4 -28 -3 -7 -1 -13 3 -13 19 0 32 16 39 48 6 29 5 32 -19 32 -13 0
-36 -4 -49 -9 -20 -8 -26 -6 -35 12 -16 33 -31 108 -21 101 5 -3 9 1 9 8 0 10
2 10 9 -1 6 -9 16 -11 32 -5 13 4 27 7 32 6 4 -1 7 12 7 28 0 17 -4 30 -10 30
-5 0 -10 12 -10 26 0 26 0 26 58 19 31 -4 80 -15 109 -25z m1520 9 c3 -11 11
-18 19 -15 7 3 16 1 19 -4 4 -6 1 -10 -5 -10 -6 0 -8 -6 -4 -12 4 -7 -2 -5
-13 5 -11 9 -28 17 -39 17 -18 1 -18 1 0 11 15 9 16 13 5 20 -12 7 -12 9 -1 9
8 0 16 -9 19 -21z m-3184 -62 c-8 -39 -42 -126 -43 -108 0 7 -20 -24 -44 -70
-24 -46 -56 -106 -73 -134 -48 -81 -73 -140 -81 -186 -4 -24 -11 -43 -15 -41
-4 1 -21 -5 -38 -14 -17 -8 -32 -14 -34 -12 -1 2 -9 32 -16 67 -10 47 -19 65
-31 67 -10 1 -18 -3 -18 -9 0 -5 -3 -8 -6 -4 -3 3 -1 14 5 24 6 11 11 13 11 5
0 -13 23 18 140 193 49 73 130 183 155 211 6 6 23 26 39 44 27 31 30 32 42 15
8 -10 11 -30 7 -48z m1063 30 c8 -4 14 -15 14 -22 0 -8 5 -15 10 -15 6 0 10
-11 10 -24 0 -26 19 -47 21 -24 1 15 -1 51 -5 91 -2 15 0 27 5 27 13 0 99
-110 131 -167 32 -56 44 -67 32 -30 -6 21 -6 21 16 -3 12 -14 26 -24 31 -23 4
2 6 -3 3 -11 -3 -7 1 -20 8 -27 33 -33 98 -217 103 -289 1 -14 4 -32 7 -40 30
-78 36 -139 18 -200 -6 -19 -15 -84 -20 -144 -6 -60 -15 -117 -21 -128 -6 -11
-19 -72 -29 -136 -10 -64 -24 -136 -32 -160 l-13 -42 -40 36 c-22 20 -53 43
-70 51 -62 33 -105 75 -105 104 0 15 -4 31 -10 34 -5 3 -10 -3 -10 -14 0 -12
-5 -21 -12 -21 -8 0 -248 116 -254 123 -1 1 5 34 13 72 8 39 18 111 23 160 7
80 13 107 41 180 12 34 35 143 64 306 8 47 15 143 15 212 0 106 2 127 15 127
8 0 15 8 16 18 0 13 2 14 6 2 3 -8 12 -19 19 -23z m1077 -31 c10 10 202 -91
281 -148 41 -29 56 -34 56 -19 0 5 -16 19 -36 30 -20 12 -34 24 -31 27 9 9 69
-39 78 -64 5 -13 15 -22 23 -20 16 3 77 -49 102 -87 9 -14 19 -23 23 -20 7 4
160 -163 190 -209 9 -13 34 -50 56 -82 58 -84 58 -85 41 -78 -9 3 -16 12 -16
20 0 8 -3 14 -8 14 -4 0 -6 -17 -4 -39 2 -21 0 -41 -5 -44 -5 -3 -40 31 -78
75 -67 79 -90 88 -65 28 17 -40 8 -56 -33 -64 -23 -4 -37 -13 -40 -26 -9 -34
-35 -23 -100 42 -34 34 -65 61 -69 60 -4 -1 -36 34 -72 77 -107 130 -290 321
-306 321 -22 0 -15 31 13 61 18 19 39 43 47 53 14 18 13 19 -2 13 -10 -3 -18
-2 -18 2 0 5 -15 18 -32 30 -23 14 -28 21 -15 21 16 0 16 2 1 28 -11 18 -11
21 -2 10 8 -10 18 -15 21 -12z m-2185 -183 c-7 -16 -18 -37 -26 -48 -12 -18
-13 -18 -6 10 9 39 22 65 34 65 5 0 4 -12 -2 -27z m2712 -28 c14 -19 14 -19
-2 -6 -10 7 -18 18 -18 24 0 6 1 8 3 6 1 -2 9 -13 17 -24z m-1900 0 c0 -8 -2
-15 -4 -15 -2 0 -6 7 -10 15 -3 8 -1 15 4 15 6 0 10 -7 10 -15z m-28 -107 c-7
-7 -10 -5 -7 8 5 29 6 30 12 16 3 -8 1 -18 -5 -24z m2753 -204 c77 -190 129
-341 221 -639 35 -115 90 -279 132 -395 10 -30 38 -91 61 -135 47 -90 61 -161
41 -219 -15 -47 -31 -46 -29 2 3 63 -12 124 -47 192 -47 87 -75 160 -125 315
-22 72 -76 236 -119 365 -43 129 -94 291 -115 360 -20 69 -41 136 -47 150 -27
65 -49 164 -33 149 2 -3 30 -68 60 -145z m-3850 -202 c-18 -4 -19 -22 -4 -93
6 -30 13 -65 14 -79 2 -14 15 -60 29 -104 15 -43 30 -99 33 -125 3 -25 10 -48
14 -51 7 -5 29 -269 29 -355 l0 -43 -46 -7 c-25 -3 -48 -4 -50 -2 -3 3 -9 81
-15 173 -5 93 -15 243 -23 334 -9 111 -10 171 -4 184 7 12 7 21 -1 25 -5 4
-13 52 -17 106 l-7 100 32 -30 c23 -22 27 -31 16 -33z m-1833 -329 c7 -9 7
-13 0 -13 -6 0 -21 27 -33 59 -13 33 -28 57 -33 54 -5 -4 -7 1 -3 10 3 9 1 17
-5 19 -7 3 -8 10 -3 18 5 9 17 -10 37 -61 17 -41 34 -80 40 -86z m2438 147
c10 15 42 -64 34 -85 -9 -23 -23 -18 -35 13 -12 30 -23 95 -13 73 5 -10 8 -10
14 -1z m-3471 -130 l-1 -25 -8 25 c-4 14 -8 32 -9 40 -1 13 0 13 9 0 5 -8 9
-26 9 -40z m5386 -326 c20 -191 20 -302 -2 -326 -17 -19 -58 -24 -68 -8 -4 6
1 7 12 3 15 -6 16 -4 5 9 -13 16 -7 48 9 48 5 0 9 5 9 11 0 5 -4 7 -10 4 -6
-3 -10 4 -11 17 0 13 -3 39 -5 58 -8 52 -6 95 12 200 17 105 24 134 30 127 2
-2 11 -67 19 -143z m-422 -154 c-3 -11 -7 -20 -9 -20 -2 0 -4 9 -4 20 0 11 4
20 9 20 5 0 7 -9 4 -20z m-5189 -110 c14 -22 26 -41 26 -43 0 -2 -22 -2 -50 1
-40 4 -51 1 -56 -12 -8 -20 -24 -21 -24 0 0 8 5 12 10 9 6 -3 10 0 10 9 0 12
46 76 55 76 1 0 14 -18 29 -40z m3222 -135 c10 -189 -17 -275 -87 -275 -48 0
-62 25 -55 94 3 34 9 102 12 151 9 158 7 153 62 157 26 2 50 1 54 -2 5 -3 11
-60 14 -125z m-3346 39 c-12 -31 -5 -94 10 -94 5 0 13 -12 16 -27 4 -16 16
-45 26 -66 11 -22 17 -42 14 -45 -3 -3 -6 0 -6 7 0 7 -4 10 -9 7 -5 -3 -25 15
-45 41 -29 37 -36 55 -36 89 0 40 27 130 37 121 2 -2 -1 -17 -7 -33z m4260 -6
c30 -14 71 -41 90 -59 20 -19 58 -39 91 -49 31 -10 77 -32 102 -49 25 -17 49
-31 53 -31 4 0 34 -20 65 -45 32 -25 60 -45 63 -45 7 0 28 -19 93 -83 29 -28
50 -61 64 -102 20 -56 22 -88 29 -475 8 -407 2 -640 -18 -690 -6 -14 -20 -56
-32 -95 -18 -60 -114 -271 -130 -285 -3 -3 -21 -25 -40 -50 -48 -63 -80 -87
-163 -127 -108 -53 -172 -63 -271 -46 -94 16 -171 38 -206 58 -33 19 -10 18
65 -1 99 -26 179 -41 193 -36 20 6 3 22 -26 23 -24 0 -25 1 -7 9 18 7 17 9
-12 20 -41 15 -34 30 12 25 19 -3 37 0 40 5 4 6 -10 10 -34 10 -84 0 -52 21
111 74 26 9 56 20 65 25 10 5 44 19 75 31 97 37 92 46 -24 53 -189 11 -358 84
-408 177 -15 27 -8 33 57 55 29 9 55 21 58 26 4 5 15 9 26 9 10 0 19 4 19 9 0
5 10 11 23 13 32 4 27 30 -8 40 -16 4 -53 28 -81 52 -38 34 -56 59 -72 103
-41 112 -44 168 -47 729 -3 438 -6 558 -19 632 -9 51 -16 96 -16 101 0 31 148
23 220 -11z m3277 -355 c92 -37 149 -77 171 -120 22 -43 38 -138 22 -128 -6 3
-10 15 -10 25 0 10 -5 22 -11 26 -8 5 -10 -1 -6 -18 5 -18 2 -28 -8 -32 -10
-4 -17 3 -21 22 -19 87 -37 123 -77 155 -46 37 -48 38 -162 79 l-80 28 60 -6
c33 -4 88 -18 122 -31z m-280 -179 c-3 -3 -12 -4 -19 -1 -8 3 -5 6 6 6 11 1
17 -2 13 -5z m94 -61 c13 -17 13 -17 -6 -3 -11 8 -22 16 -24 17 -2 2 0 3 6 3
6 0 17 -8 24 -17z m-6276 -19 c-27 -8 -59 -19 -70 -24 -45 -21 -125 -49 -125
-44 0 3 -12 -4 -26 -15 -15 -12 -32 -21 -38 -21 -6 0 -4 5 4 10 19 12 4 13
-36 1 -24 -7 -31 -6 -31 6 0 7 6 12 14 9 7 -3 13 -2 13 3 0 10 182 70 245 80
80 14 105 11 50 -5z m5788 -81 c3 -5 -6 -9 -20 -10 -19 -1 -22 1 -12 8 17 11
26 11 32 2z m107 -33 c0 -5 -2 -10 -4 -10 -3 0 -8 5 -11 10 -3 6 -1 10 4 10 6
0 11 -4 11 -10z m-450 -790 c109 -161 170 -363 170 -567 0 -64 -3 -92 -11 -88
-13 9 -38 -23 -39 -50 -1 -29 -26 49 -40 126 -10 58 -43 186 -111 439 -11 41
-33 117 -50 168 -16 51 -29 96 -29 100 1 11 68 -67 110 -128z m-3830 30 c9 0
16 -28 25 -105 3 -27 8 -65 11 -83 4 -18 2 -38 -4 -45 -5 -6 -9 -24 -8 -39 1
-14 -2 -24 -6 -22 -4 3 -8 49 -8 102 0 54 -7 122 -15 152 -8 30 -14 62 -14 70
1 8 4 5 6 -7 2 -13 8 -23 13 -23z m-633 -32 c-3 -8 -6 -5 -6 6 -1 11 2 17 5
13 3 -3 4 -12 1 -19z m4107 -95 c43 -86 52 -106 61 -143 4 -17 3 -21 -3 -12
-7 11 -10 11 -15 -3 -4 -9 -3 -14 2 -11 14 9 32 -20 25 -38 -4 -11 -2 -15 7
-11 17 6 56 -112 71 -213 5 -37 14 -81 19 -98 5 -17 9 -59 8 -95 0 -52 -2 -59
-10 -40 -5 14 -7 37 -4 53 8 36 -4 96 -15 78 -5 -8 -8 0 -8 21 1 61 -2 79 -13
79 -6 0 -9 -7 -5 -15 3 -8 1 -15 -4 -15 -5 0 -7 23 -3 53 5 50 5 51 -11 32
-17 -20 -17 -19 -13 7 2 15 1 25 -3 23 -10 -6 -19 30 -21 75 0 27 -2 31 -8 15
-7 -17 -9 -16 -14 10 -3 17 -1 32 4 33 5 2 9 8 9 14 0 6 -7 8 -15 4 -15 -5
-20 17 -15 71 1 18 -2 21 -16 16 -14 -5 -16 -2 -12 15 4 12 2 22 -2 22 -5 0
-15 28 -23 63 -8 34 -18 71 -23 81 -4 11 -4 17 2 13 5 -3 27 -41 48 -84z
m-3661 -18 c22 -103 -43 -476 -119 -680 -15 -38 -31 -82 -36 -96 l-9 -26 -70
66 c-66 64 -69 69 -69 113 0 174 115 498 221 621 49 57 70 57 82 2z m198 -198
c-8 -8 -11 -7 -11 4 0 20 13 34 18 19 3 -7 -1 -17 -7 -23z m-20 -58 c-6 -16
-10 -18 -10 -7 -1 22 12 55 16 42 2 -6 -1 -22 -6 -35z m3636 -321 c-3 -7 -5
-2 -5 12 0 14 2 19 5 13 2 -7 2 -19 0 -25z m-1657 -548 c0 -5 -10 -15 -22 -21
-12 -6 -31 -21 -43 -33 -36 -34 -65 -56 -74 -56 -5 0 -14 -7 -21 -15 -10 -13
-9 -15 8 -15 47 0 125 24 199 60 43 21 80 36 83 33 3 -3 0 -8 -7 -10 -16 -6
-58 -43 -48 -43 4 0 0 -9 -10 -20 -12 -13 -26 -18 -39 -15 -12 3 -15 2 -8 -1
20 -9 14 -19 -34 -52 -32 -23 -52 -31 -67 -27 -17 5 -19 4 -7 -4 12 -8 9 -12
-15 -20 -17 -6 -41 -17 -55 -25 -37 -20 -91 -27 -125 -17 l-30 9 33 1 c17 1
32 5 32 10 0 14 -52 20 -100 11 -61 -12 -60 -13 -60 10 0 11 3 20 8 20 4 0 44
24 89 53 45 28 119 72 163 97 45 25 91 53 103 62 24 19 47 23 47 8z"/>
<path d="M6248 11603 c7 -3 16 -2 19 1 4 3 -2 6 -13 5 -11 0 -14 -3 -6 -6z"/>
<path d="M4131 11274 c-20 -25 -27 -44 -17 -44 8 0 48 61 43 66 -2 3 -14 -7
-26 -22z"/>
<path d="M5045 11230 c-3 -5 -2 -10 4 -10 5 0 13 5 16 10 3 6 2 10 -4 10 -5 0
-13 -4 -16 -10z"/>
<path d="M3750 10581 c0 -5 5 -13 10 -16 6 -3 10 -2 10 4 0 5 -4 13 -10 16 -5
3 -10 2 -10 -4z"/>
<path d="M3710 10460 c0 -5 5 -10 10 -10 6 0 10 5 10 10 0 6 -4 10 -10 10 -5
0 -10 -4 -10 -10z"/>
<path d="M3641 10314 c-12 -27 -11 -28 4 -12 10 9 16 21 13 28 -2 7 -10 -1
-17 -16z"/>
<path d="M7795 10841 c-10 -17 12 -21 25 -6 10 12 10 15 -3 15 -9 0 -18 -4
-22 -9z"/>
<path d="M8095 10600 c-3 -6 1 -7 9 -4 18 7 21 14 7 14 -6 0 -13 -4 -16 -10z"/>
<path d="M8115 10581 c-4 -7 0 -8 11 -4 12 4 15 3 10 -5 -4 -7 0 -22 9 -34
l17 -23 -7 22 c-5 18 -3 22 9 17 9 -3 14 -9 11 -14 -2 -4 10 -20 27 -36 l32
-29 -17 28 c-13 20 -14 27 -5 28 7 0 3 5 -9 11 -13 6 -23 17 -23 25 0 7 -6 13
-14 13 -8 0 -21 3 -29 6 -8 3 -18 1 -22 -5z"/>
<path d="M9077 7484 c-4 -4 -7 -14 -7 -23 0 -11 3 -12 11 -4 6 6 10 16 7 23
-2 6 -7 8 -11 4z"/>
<path d="M7400 9790 c-1 -3 -4 -50 -6 -105 -2 -55 -10 -127 -19 -160 -16 -62
-44 -497 -45 -700 0 -153 -32 -384 -61 -436 -8 -16 -6 -19 11 -19 15 0 20 -7
20 -25 0 -20 -5 -25 -24 -25 -35 0 -42 -18 -11 -26 22 -5 26 -11 23 -38 -3
-30 -5 -31 -55 -34 -58 -3 -67 -17 -37 -60 8 -12 23 -46 34 -74 33 -96 78
-182 124 -242 45 -57 46 -60 46 -132 0 -77 8 -91 39 -75 14 8 22 6 36 -9 9
-10 14 -23 11 -29 -4 -5 -2 -12 4 -16 15 -9 12 -28 -3 -22 -7 3 -19 -4 -26
-15 -20 -32 49 -134 119 -175 39 -24 56 -30 61 -21 6 9 10 8 14 -4 9 -22 46
-30 65 -13 8 7 58 23 110 34 52 11 115 27 139 35 24 9 56 16 70 16 90 0 264
77 348 153 114 105 253 311 274 406 8 38 15 51 29 51 29 0 37 108 9 126 -12 7
-12 51 0 58 5 3 12 18 16 33 6 25 -2 45 -64 173 -13 25 -143 130 -194 157 -55
27 -195 48 -267 38 -152 -20 -312 -94 -497 -229 -60 -44 -63 -45 -67 -24 -6
28 -17 161 -21 248 -2 36 -6 103 -9 150 -26 373 -34 526 -26 534 4 4 4 22 -1
40 -6 17 -12 55 -14 84 -6 70 -43 225 -66 279 -16 37 -23 43 -48 43 -25 0 -30
5 -34 28 -2 15 -5 25 -7 22z m407 -1415 c0 -8 -4 -12 -9 -9 -5 3 -6 10 -3 15
9 13 12 11 12 -6z m789 -22 c-10 -10 -19 5 -10 18 6 11 8 11 12 0 2 -7 1 -15
-2 -18z m-19 -109 c-8 -8 -31 15 -40 40 -6 15 -1 13 19 -7 15 -15 24 -30 21
-33z m33 -30 c0 -8 -4 -12 -10 -9 -5 3 -10 13 -10 21 0 8 5 12 10 9 6 -3 10
-13 10 -21z m-1325 -74 c-3 -5 -1 -10 4 -10 6 0 11 5 11 10 0 6 7 10 15 10 8
0 15 -6 15 -12 0 -7 3 -23 6 -35 6 -21 3 -23 -34 -23 -39 0 -69 19 -44 28 7 2
9 8 6 14 -4 6 0 14 7 19 18 11 22 11 14 -1z"/>
<path d="M6300 9331 c0 -17 -4 -33 -10 -36 -5 -3 -10 -15 -10 -26 0 -11 -5
-17 -10 -14 -12 8 -14 1 -29 -94 -6 -41 -15 -79 -20 -85 -4 -6 -13 -42 -20
-81 -7 -38 -20 -90 -28 -115 -8 -24 -13 -58 -12 -75 1 -16 -1 -37 -5 -45 -3
-8 -10 -46 -15 -85 l-9 -70 41 -42 c48 -51 44 -65 -10 -29 -20 14 -41 26 -45
26 -4 0 -40 16 -80 36 -89 44 -204 65 -377 68 l-123 3 -4 43 c-3 24 -7 46 -10
49 -8 8 -34 -29 -34 -49 0 -32 -27 -50 -125 -85 -55 -19 -101 -35 -101 -35 -1
0 -4 14 -7 30 -10 47 -32 36 -87 -44 -67 -99 -90 -160 -90 -239 0 -90 15 -147
38 -147 12 -1 6 -11 -21 -35 l-38 -33 24 -49 c14 -26 59 -99 100 -162 67 -102
74 -117 65 -142 -7 -20 -5 -35 6 -58 22 -42 21 -54 -4 -41 -10 6 -23 9 -27 8
-4 -1 -18 2 -31 6 -47 16 -31 -3 33 -39 42 -23 76 -51 95 -78 40 -58 55 -71
98 -93 20 -10 53 -31 72 -46 36 -28 136 -51 162 -38 7 4 23 11 36 14 19 7 22
4 22 -22 0 -26 4 -30 38 -36 47 -8 340 -8 369 0 16 5 24 16 29 43 7 37 20 61
35 61 7 0 22 -33 24 -55 1 -16 27 -6 72 28 40 30 52 58 44 101 -1 5 5 16 13
25 8 9 15 19 16 23 0 4 5 18 11 30 7 18 8 9 5 -36 -3 -36 -12 -66 -23 -79
l-18 -21 30 21 c48 33 147 134 185 187 19 26 48 66 64 88 15 21 25 42 21 46
-4 4 -12 -1 -20 -11 -11 -16 -13 -16 -19 -1 -13 33 -4 51 49 104 30 30 55 60
55 68 0 7 -4 10 -10 7 -5 -3 -10 -2 -10 4 0 5 5 13 11 16 7 5 4 14 -8 28 -13
16 -14 18 -2 9 9 -7 24 -9 34 -6 14 6 11 9 -15 20 -17 8 -41 13 -52 11 -14 -1
-22 5 -24 21 -4 20 0 22 39 22 23 0 61 9 85 20 38 17 43 23 42 52 -1 35 19
124 33 146 5 6 17 12 28 12 10 0 19 5 19 11 0 6 9 9 19 6 10 -2 25 -1 32 4 9
6 1 9 -26 8 -22 0 -79 3 -127 7 -74 6 -87 10 -92 26 -2 11 -2 26 1 34 6 16 44
19 59 5 5 -5 41 -11 79 -14 57 -5 67 -4 51 6 -10 7 -31 22 -46 35 -15 12 -31
22 -35 22 -4 0 -41 16 -82 35 -41 19 -77 35 -79 35 -6 0 -144 68 -174 85 -14
8 -35 15 -47 15 -13 0 -23 6 -23 13 -8 296 -43 697 -61 697 -5 0 -9 -13 -9
-29z m-20 -406 c0 -20 -3 -23 -12 -15 -7 6 -22 17 -33 25 -19 14 -18 14 13 15
28 0 32 -3 32 -25z m-83 -167 c-3 -8 -6 -5 -6 6 -1 11 2 17 5 13 3 -3 4 -12 1
-19z m53 -38 c0 -6 11 -8 25 -4 21 5 25 3 25 -16 0 -12 -4 -18 -10 -15 -6 4
-8 11 -4 16 3 6 -4 7 -18 4 -16 -4 -29 -1 -37 9 -11 13 -11 16 3 16 9 0 16 -5
16 -10z m322 -227 c19 -17 17 -49 -3 -46 -8 1 -31 8 -51 15 -35 12 -38 16 -38
50 l0 38 38 -21 c20 -12 44 -28 54 -36z m-1082 -52 c0 -9 -52 -51 -64 -51 -8
0 -8 45 1 53 10 11 63 8 63 -2z m819 -54 c-1 -36 -2 -38 -9 -17 -12 36 -12 72
0 65 6 -3 10 -25 9 -48z m208 -77 c7 0 13 7 13 15 0 9 -6 12 -15 9 -8 -4 -15
-1 -15 4 0 11 31 9 50 -3 13 -8 13 -32 0 -40 -5 -3 -25 -3 -45 1 -33 6 -35 9
-34 43 l0 36 16 -32 c9 -18 23 -33 30 -33z m191 -46 c3 -23 -39 -64 -64 -64
-16 0 -19 36 -4 45 6 3 10 15 10 26 0 30 54 23 58 -7z m-1458 1 c0 -2 -10 -9
-22 -15 -22 -11 -22 -10 -4 4 21 17 26 19 26 11z m-68 -58 c-12 -11 -27 -17
-36 -14 -20 8 -21 27 -1 27 8 0 15 4 15 9 0 5 9 7 21 4 l21 -6 -20 -20z m1358
-117 c0 -5 -5 -10 -11 -10 -5 0 -7 5 -4 10 3 6 8 10 11 10 2 0 4 -4 4 -10z"/>
<path d="M5410 8713 c-8 -2 -24 -8 -35 -13 -40 -16 -60 -23 -75 -24 -8 -1 -16
-11 -18 -24 -3 -22 -3 -22 45 6 27 16 66 35 86 41 37 13 48 22 25 20 -7 0 -20
-3 -28 -6z"/>
<path d="M7215 8320 c-3 -5 -1 -10 4 -10 6 0 11 5 11 10 0 6 -2 10 -4 10 -3 0
-8 -4 -11 -10z"/>
<path d="M6658 7849 c-20 -11 -25 -43 -6 -37 9 3 33 49 25 48 -1 0 -10 -5 -19
-11z"/>
<path d="M7461 7614 c0 -11 3 -14 6 -6 3 7 2 16 -1 19 -3 4 -6 -2 -5 -13z"/>
<path d="M3410 8647 c0 -20 4 -37 10 -37 5 0 7 14 3 33 -8 45 -13 47 -13 4z"/>
<path d="M3362 8420 c0 -14 2 -19 5 -12 2 6 2 18 0 25 -3 6 -5 1 -5 -13z"/>
<path d="M3352 8365 c0 -16 2 -22 5 -12 2 9 2 23 0 30 -3 6 -5 -1 -5 -18z"/>
<path d="M3853 8414 c-3 -8 -1 -20 5 -26 7 -7 10 -2 9 16 -2 30 -5 32 -14 10z"/>
<path d="M3820 8391 c0 -17 12 -41 20 -41 10 0 1 38 -11 46 -5 3 -9 1 -9 -5z"/>
<path d="M3810 8355 c0 -5 5 -17 10 -25 5 -8 10 -10 10 -5 0 6 -5 17 -10 25
-5 8 -10 11 -10 5z"/>
<path d="M3751 8114 c0 -11 3 -14 6 -6 3 7 2 16 -1 19 -3 4 -6 -2 -5 -13z"/>
<path d="M3120 5980 c0 -5 5 -10 11 -10 5 0 7 5 4 10 -3 6 -8 10 -11 10 -2 0
-4 -4 -4 -10z"/>
<path d="M8570 5751 c0 -14 47 -67 54 -61 7 8 -31 70 -44 70 -5 0 -10 -4 -10
-9z"/>
<path d="M2726 5455 c-9 -26 -7 -32 5 -12 6 10 9 21 6 23 -2 3 -7 -2 -11 -11z"/>
<path d="M2442 4661 c-6 -17 -9 -31 -6 -31 7 0 25 52 20 57 -2 2 -8 -10 -14
-26z"/>
<path d="M2446 4615 c-3 -9 -6 -24 -5 -33 0 -9 5 -4 10 12 9 32 6 48 -5 21z"/>
<path d="M2360 4379 c0 -5 5 -7 10 -4 6 3 10 8 10 11 0 2 -4 4 -10 4 -5 0 -10
-5 -10 -11z"/>
<path d="M8145 5550 c4 -6 11 -8 16 -5 14 9 11 15 -7 15 -8 0 -12 -5 -9 -10z"/>
<path d="M8185 5540 c-3 -5 1 -10 9 -10 9 0 16 -5 16 -11 0 -5 4 -8 9 -5 5 4
11 1 13 -5 2 -5 11 -7 21 -3 14 5 10 10 -20 25 -44 22 -40 22 -48 9z"/>
<path d="M6665 690 c-4 -6 5 -10 19 -10 14 0 26 5 26 10 0 6 -9 10 -19 10 -11
0 -23 -4 -26 -10z"/>
<path d="M6640 660 c-13 -8 -13 -10 2 -10 9 0 20 5 23 10 8 13 -5 13 -25 0z"/>
<path d="M6580 619 c0 -5 5 -7 10 -4 6 3 10 8 10 11 0 2 -4 4 -10 4 -5 0 -10
-5 -10 -11z"/>
<path d="M6538 603 c7 -3 16 -2 19 1 4 3 -2 6 -13 5 -11 0 -14 -3 -6 -6z"/>
<path d="M6500 580 c0 -5 5 -10 10 -10 6 0 10 5 10 10 0 6 -4 10 -10 10 -5 0
-10 -4 -10 -10z"/>
</g>
</svg>
